<svg width="970" height="683" viewBox="0 0 970 683" fill="none" xmlns="http://www.w3.org/2000/svg">
<rect y="-196" width="970" height="879" fill="#9AC8FF"/>
<path d="M80 0H247.375H414.75H582.125H749.5H916.875H1084.25H1251.63H1419C1419 0 916.875 147.5 749.5 590C582.125 1032.5 80 1180 80 1180V1032.5V885V737.5V590V442.5V295V147.5V0Z" fill="#4E9EFD"/>
<path d="M80 0H247.375H414.75H582.125H749.5H916.875H1084.25H1251.63H1419C1419 0 916.875 147.5 749.5 590C582.125 1032.5 80 1180 80 1180V1032.5V885V737.5V590V442.5V295V147.5V0Z" fill="#86BAF9"/>
<path d="M0 -209H167.375H334.75H502.125H669.5H836.875H1004.25H1171.63H1339C1339 -209 836.875 -61.5 669.5 381C502.125 823.5 0 971 0 971V823.5V676V528.5V381V233.5V86V-61.5V-209Z" fill="#4E9EFD"/>
<path d="M0 -209H167.375H334.75H502.125H669.5H836.875H1004.25H1171.63H1339C1339 -209 836.875 -61.5 669.5 381C502.125 823.5 0 971 0 971V823.5V676V528.5V381V233.5V86V-61.5V-209Z" fill="#6DB0FE"/>
<path d="M0 -196H50.25H100.5H150.75H201H251.25H301.5H351.75H402C402 -196 251.25 -146.875 201 0.5C150.75 147.875 0 197 0 197V147.875V98.75V49.625V0.5V-48.625V-97.75V-146.875V-196Z" fill="#00A3FF"/>
<path d="M0 -196H132.5H265H397.5H530H662.5H795H927.5H1060C1060 -196 662.5 -79.25 530 271C397.5 621.25 0 738 0 738V621.25V504.5V387.75V271V154.25V37.5V-79.25V-196Z" fill="#4E9EFD"/>
<path d="M0 -196H132.5H265H397.5H530H662.5H795H927.5H1060C1060 -196 662.5 -79.25 530 271C397.5 621.25 0 738 0 738V621.25V504.5V387.75V271V154.25V37.5V-79.25V-196Z" fill="#4A9CFC"/>
<path d="M0 -196H90H180H270H360H450H540H630H720C720 -196 450 -108.125 360 155.5C270 419.125 0 507 0 507V419.125V331.25V243.375V155.5V67.625V-20.25V-108.125V-196Z" fill="#4E9EFD"/>
<path d="M0 -196H90H180H270H360H450H540H630H720C720 -196 450 -108.125 360 155.5C270 419.125 0 507 0 507V419.125V331.25V243.375V155.5V67.625V-20.25V-108.125V-196Z" fill="#3177FF"/>
<path d="M0 -196H50.25H100.5H150.75H201H251.25H301.5H351.75H402C402 -196 251.25 -146.875 201 0.5C150.75 147.875 0 197 0 197V147.875V98.75V49.625V0.5V-48.625V-97.75V-146.875V-196Z" fill="url(#paint0_linear)"/>
<g filter="url(#filter0_d)">
<path fill-rule="evenodd" clip-rule="evenodd" d="M485 141C374.543 141 285 230.543 285 341H360.016C360.005 340.335 360 339.668 360 339C360 269.964 415.964 214 485 214V141ZM609.984 341C608.916 409.113 553.368 464 485 464V541C595.457 541 685 451.457 685 341H609.984Z" fill="white"/>
<path fill-rule="evenodd" clip-rule="evenodd" d="M685 305H485V382H681L685 344V305Z" fill="white"/>
</g>
<defs>
<filter id="filter0_d" x="281" y="141" width="408" height="408" filterUnits="userSpaceOnUse" color-interpolation-filters="sRGB">
<feFlood flood-opacity="0" result="BackgroundImageFix"/>
<feColorMatrix in="SourceAlpha" type="matrix" values="0 0 0 0 0 0 0 0 0 0 0 0 0 0 0 0 0 0 127 0"/>
<feOffset dy="4"/>
<feGaussianBlur stdDeviation="2"/>
<feColorMatrix type="matrix" values="0 0 0 0 0 0 0 0 0 0 0 0 0 0 0 0 0 0 0.25 0"/>
<feBlend mode="normal" in2="BackgroundImageFix" result="effect1_dropShadow"/>
<feBlend mode="normal" in="SourceGraphic" in2="effect1_dropShadow" result="shape"/>
</filter>
<linearGradient id="paint0_linear" x1="201" y1="-196" x2="201" y2="197" gradientUnits="userSpaceOnUse">
<stop stop-color="#0057FF"/>
<stop offset="1" stop-color="#0057FF" stop-opacity="0"/>
</linearGradient>
</defs>
</svg>
