<svg width="893" height="893" viewBox="0 0 893 893" fill="none" xmlns="http://www.w3.org/2000/svg">
<path d="M298 298C-131.121 298 164.581 298 0 298C0 133.419 133.419 0 298 0C298 131.12 298 133.419 298 298Z" fill="#F1D47E"/>
<path d="M298 2.19345e-05C727.121 2.19345e-05 431.419 3.74603e-06 596 3.74603e-06C596 164.581 462.581 298 298 298C298 166.88 298 164.581 298 2.19345e-05Z" fill="#78A3EA"/>
<path d="M893 298C893 725.681 893 430.971 893 595C728.971 595 596 462.029 596 298C726.68 298 728.971 298 893 298Z" fill="#78A3EA"/>
<ellipse cx="149" cy="446.5" rx="149" ry="148.5" fill="#41B17B"/>
<ellipse cx="744.5" cy="744" rx="148.5" ry="149" fill="#314A72"/>
<ellipse cx="744.5" cy="149" rx="148.5" ry="149" fill="#41B17B"/>
<path d="M596 298C596 462.305 596 466.98 596 893C431.419 893 298 759.805 298 595.5C298 431.195 431.419 298 596 298Z" fill="#E0695F"/>
<path d="M298 893C298 893 182.927 893 40.9773 893C182.927 893 -100.972 893 40.9773 893C40.9773 751.063 156.05 636 298 636C298 750.108 298 751.063 298 893Z" fill="#78A3EA"/>
</svg>
